# xmcd CD database file
#
# Track frame offsets:
#	150
#	20432
#	38327
#	53475
#	66432
#	83195
#	111015
#	124602
#	141702
#	159737
#	180275
#
# Disc length: 2635 seconds
#
# Revision: 3
# Processed by: cddbd v1.5.2PL0 Copyright (c) Steve Scherf et al.
# Submitted via: CDex 1.51
#
DISCID=8b0a490b
DTITLE=Robert Lucas - Luke and the Locomotives - (AudioQuest)
DYEAR=1991
DGENRE=Blues
TTITLE0=Good Morning Little Schoolgirl
TTITLE1=Big Man Mambo
TTITLE2=Slide On Outta Here
TTITLE3=Worried About It Baby
TTITLE4=Shed A Tear
TTITLE5=Feel Like Going Home
TTITLE6=Don't Your Peaches Look Mellow
TTITLE7=Meet Me In The Bottom
TTITLE8=Stranger
TTITLE9=I'm So Tired
TTITLE10=Good-bye Baby
EXTD=YEAR: 1991
EXTT0=
EXTT1=
EXTT2=
EXTT3=
EXTT4=
EXTT5=
EXTT6=
EXTT7=
EXTT8=
EXTT9=
EXTT10=
PLAYORDER=
